<svg xmlns="http://www.w3.org/2000/svg" viewBox="0 0 48 48">
  <path fill="#EA4335" d="M24 9.5c3.54 0 6.38 1.22 8.75 3.23l6.5-6.5C35.17 2.33 30 0.5 24 0.5 14.82 0.5 6.94 5.6 3.42 13.1l7.56 5.88C13.14 13.12 18.14 9.5 24 9.5z"></path>
  <path fill="#4285F4" d="M46.5 24c0-1.5-.13-2.92-.38-4.3H24v8.14h12.7c-.55 3-2.18 5.53-4.64 7.23l7.2 5.6c4.2-3.88 6.6-9.6 6.6-16.67z"></path>
  <path fill="#FBBC05" d="M10.97 28.98c-.55-1.62-.86-3.35-.86-5.18s.31-3.56.86-5.18l-7.56-5.88C1.52 16.7 0.5 20.2 0.5 24s1.02 7.3 2.9 10.26l7.57-5.28z"></path>
  <path fill="#34A853" d="M24 46.5c6 0 11.17-1.98 14.89-5.36l-7.2-5.6c-2 1.35-4.6 2.15-7.69 2.15-5.86 0-10.86-3.62-12.02-8.48l-7.56 5.28C6.94 42.4 14.82 46.5 24 46.5z"></path>
</svg>
